PathFileType	4	(X/Y/Z)	C:\Users\italobelli\Desktop\GitHub\PTbot_officialCBL\Personal_Results\ABD02_noisy1.trc
DataRate	CameraRate	NumFrames	NumMarkers	Units	OrigDataRate	OrigDataStartFrame	OrigNumFrames
106.125000	106.125000	30	9	m	106.125000	744	850
Frame#	Time		gu		centelbow		EpL		centpxt8		centijc7		ij		ts		aa		ai
			X1	Y1	Z1	X2	Y2	Z2	X3	Y3	Z3	X4	Y4	Z4	X5	Y5	Z5	X6	Y6	Z6	X7	Y7	Z7	X8	Y8	Z8	X9	Y9	Z9

744	7.0012	-0.11295	0.010224	0.1581	-0.13121	-0.22207	0.20016	-0.13193	-0.2135	0.23123	-0.046816	-0.15316	-0.008669	-0.046816	0.031938	-0.008669	0	0	0	-0.13009	0.029702	0.027587	-0.14414	0.044552	0.1451	-0.1412	-0.081815	0.045639
745	7.0106	-0.11291	0.01018	0.15809	-0.13131	-0.2221	0.20027	-0.13202	-0.21354	0.23134	-0.046816	-0.15316	-0.008669	-0.046816	0.031938	-0.008669	0	0	0	-0.13009	0.029697	0.02761	-0.14408	0.044525	0.14514	-0.14122	-0.081819	0.045627
746	7.02	-0.11287	0.010137	0.15808	-0.1314	-0.22214	0.20038	-0.1321	-0.21359	0.23145	-0.046816	-0.15316	-0.008669	-0.046816	0.031938	-0.008669	0	0	0	-0.13009	0.029691	0.027636	-0.14401	0.044499	0.14518	-0.14124	-0.081825	0.045619
747	7.0294	-0.11283	0.010096	0.15808	-0.13149	-0.22218	0.20049	-0.13219	-0.21364	0.23157	-0.046816	-0.15316	-0.008669	-0.046816	0.031938	-0.008669	0	0	0	-0.13009	0.029684	0.027663	-0.14394	0.044473	0.14522	-0.14126	-0.081831	0.045615
748	7.0389	-0.11279	0.010056	0.15807	-0.13159	-0.22223	0.2006	-0.13227	-0.21369	0.23168	-0.046816	-0.15316	-0.008669	-0.046816	0.031938	-0.008669	0	0	0	-0.13009	0.029677	0.027693	-0.14387	0.044448	0.14527	-0.14127	-0.081837	0.045615
749	7.0483	-0.11274	0.010017	0.15807	-0.13168	-0.22228	0.20071	-0.13236	-0.21375	0.23179	-0.046816	-0.15316	-0.008669	-0.046816	0.031938	-0.008669	0	0	0	-0.13008	0.029669	0.027724	-0.14379	0.044423	0.14531	-0.14129	-0.081844	0.045618
750	7.0577	-0.1127	0.0099806	0.15806	-0.13177	-0.22233	0.20082	-0.13244	-0.21382	0.2319	-0.046816	-0.15316	-0.008669	-0.046816	0.031938	-0.008669	0	0	0	-0.13008	0.029661	0.027756	-0.14372	0.044398	0.14536	-0.1413	-0.081851	0.045625
751	7.0671	-0.11265	0.009945	0.15806	-0.13186	-0.22239	0.20093	-0.13252	-0.21388	0.23201	-0.046816	-0.15316	-0.008669	-0.046816	0.031938	-0.008669	0	0	0	-0.13007	0.029651	0.027791	-0.14364	0.044374	0.14541	-0.14132	-0.081859	0.045636
752	7.0766	-0.1126	0.0099107	0.15806	-0.13194	-0.22246	0.20105	-0.13261	-0.21395	0.23213	-0.046816	-0.15316	-0.008669	-0.046816	0.031938	-0.008669	0	0	0	-0.13006	0.029642	0.027826	-0.14356	0.04435	0.14546	-0.14133	-0.081867	0.045649
753	7.086	-0.11255	0.0098777	0.15806	-0.13203	-0.22252	0.20116	-0.13269	-0.21403	0.23224	-0.046816	-0.15316	-0.008669	-0.046816	0.031938	-0.008669	0	0	0	-0.13005	0.029632	0.027864	-0.14348	0.044326	0.14551	-0.14134	-0.081875	0.045666
754	7.0954	-0.1125	0.0098458	0.15807	-0.13212	-0.2226	0.20127	-0.13277	-0.2141	0.23235	-0.046816	-0.15316	-0.008669	-0.046816	0.031938	-0.008669	0	0	0	-0.13004	0.029621	0.027902	-0.1434	0.044302	0.14556	-0.14135	-0.081884	0.045686
755	7.1048	-0.11245	0.009815	0.15807	-0.1322	-0.22267	0.20138	-0.13285	-0.21418	0.23247	-0.046816	-0.15316	-0.008669	-0.046816	0.031938	-0.008669	0	0	0	-0.13003	0.02961	0.027942	-0.14331	0.044279	0.14561	-0.14136	-0.081893	0.045708
756	7.1143	-0.1124	0.0097853	0.15807	-0.13228	-0.22275	0.20149	-0.13293	-0.21427	0.23258	-0.046816	-0.15316	-0.008669	-0.046816	0.031938	-0.008669	0	0	0	-0.13002	0.029599	0.027983	-0.14323	0.044256	0.14566	-0.14138	-0.081903	0.045733
757	7.1237	-0.11234	0.0097565	0.15808	-0.13237	-0.22284	0.20161	-0.13301	-0.21435	0.23269	-0.046816	-0.15316	-0.008669	-0.046816	0.031938	-0.008669	0	0	0	-0.13	0.029587	0.028025	-0.14314	0.044233	0.14572	-0.14139	-0.081913	0.045761
758	7.1331	-0.11229	0.0097287	0.15808	-0.13245	-0.22293	0.20172	-0.13308	-0.21445	0.2328	-0.046816	-0.15316	-0.008669	-0.046816	0.031938	-0.008669	0	0	0	-0.12999	0.029575	0.028068	-0.14306	0.04421	0.14577	-0.1414	-0.081923	0.045791
759	7.1425	-0.11223	0.0097017	0.15809	-0.13253	-0.22302	0.20183	-0.13316	-0.21454	0.23291	-0.046816	-0.15316	-0.008669	-0.046816	0.031938	-0.008669	0	0	0	-0.12997	0.029562	0.028112	-0.14297	0.044187	0.14583	-0.14141	-0.081933	0.045823
760	7.1519	-0.11218	0.0096756	0.15809	-0.1326	-0.22312	0.20194	-0.13323	-0.21464	0.23302	-0.046816	-0.15316	-0.008669	-0.046816	0.031938	-0.008669	0	0	0	-0.12995	0.02955	0.028157	-0.14288	0.044165	0.14588	-0.14141	-0.081944	0.045857
761	7.1614	-0.11212	0.0096502	0.1581	-0.13268	-0.22322	0.20204	-0.1333	-0.21473	0.23313	-0.046816	-0.15316	-0.008669	-0.046816	0.031938	-0.008669	0	0	0	-0.12994	0.029537	0.028203	-0.14279	0.044142	0.14594	-0.14142	-0.081955	0.045893
762	7.1708	-0.11206	0.0096255	0.15811	-0.13275	-0.22332	0.20215	-0.13337	-0.21484	0.23323	-0.046816	-0.15316	-0.008669	-0.046816	0.031938	-0.008669	0	0	0	-0.12992	0.029523	0.028249	-0.1427	0.04412	0.14599	-0.14143	-0.081966	0.045931
763	7.1802	-0.112	0.0096014	0.15812	-0.13283	-0.22343	0.20226	-0.13344	-0.21494	0.23334	-0.046816	-0.15316	-0.008669	-0.046816	0.031938	-0.008669	0	0	0	-0.1299	0.02951	0.028296	-0.14261	0.044098	0.14605	-0.14144	-0.081977	0.045971
764	7.1896	-0.11194	0.0095779	0.15813	-0.1329	-0.22354	0.20236	-0.13351	-0.21505	0.23344	-0.046816	-0.15316	-0.008669	-0.046816	0.031938	-0.008669	0	0	0	-0.12988	0.029496	0.028344	-0.14252	0.044076	0.1461	-0.14145	-0.081989	0.046012
765	7.1991	-0.11188	0.0095549	0.15814	-0.13296	-0.22365	0.20246	-0.13358	-0.21516	0.23354	-0.046816	-0.15316	-0.008669	-0.046816	0.031938	-0.008669	0	0	0	-0.12986	0.029482	0.028392	-0.14243	0.044053	0.14616	-0.14145	-0.082001	0.046054
766	7.2085	-0.11182	0.0095323	0.15815	-0.13303	-0.22377	0.20256	-0.13364	-0.21528	0.23364	-0.046816	-0.15316	-0.008669	-0.046816	0.031938	-0.008669	0	0	0	-0.12984	0.029468	0.02844	-0.14234	0.044031	0.14622	-0.14146	-0.082013	0.046098
767	7.2179	-0.11176	0.0095101	0.15816	-0.1331	-0.22389	0.20266	-0.13371	-0.21539	0.23374	-0.046816	-0.15316	-0.008669	-0.046816	0.031938	-0.008669	0	0	0	-0.12982	0.029454	0.028489	-0.14225	0.044009	0.14627	-0.14147	-0.082025	0.046142
768	7.2273	-0.1117	0.0094883	0.15817	-0.13316	-0.22401	0.20276	-0.13377	-0.21551	0.23384	-0.046816	-0.15316	-0.008669	-0.046816	0.031938	-0.008669	0	0	0	-0.1298	0.02944	0.028538	-0.14216	0.043987	0.14633	-0.14148	-0.082037	0.046188
769	7.2367	-0.11164	0.0094668	0.15818	-0.13322	-0.22413	0.20286	-0.13383	-0.21563	0.23393	-0.046816	-0.15316	-0.008669	-0.046816	0.031938	-0.008669	0	0	0	-0.12978	0.029426	0.028587	-0.14207	0.043965	0.14638	-0.14148	-0.082049	0.046234
770	7.2462	-0.11158	0.0094454	0.15819	-0.13328	-0.22426	0.20295	-0.13388	-0.21576	0.23403	-0.046816	-0.15316	-0.008669	-0.046816	0.031938	-0.008669	0	0	0	-0.12976	0.029411	0.028636	-0.14198	0.043943	0.14644	-0.14149	-0.082061	0.046281
771	7.2556	-0.11152	0.0094242	0.1582	-0.13334	-0.22439	0.20304	-0.13394	-0.21588	0.23411	-0.046816	-0.15316	-0.008669	-0.046816	0.031938	-0.008669	0	0	0	-0.12974	0.029397	0.028685	-0.14189	0.043921	0.1465	-0.1415	-0.082074	0.046328
772	7.265	-0.11145	0.0094031	0.15821	-0.13339	-0.22452	0.20313	-0.13399	-0.21601	0.2342	-0.046816	-0.15316	-0.008669	-0.046816	0.031938	-0.008669	0	0	0	-0.12972	0.029383	0.028734	-0.1418	0.043899	0.14655	-0.1415	-0.082086	0.046376
773	7.2744	-0.11139	0.0093821	0.15822	-0.13345	-0.22466	0.20321	-0.13404	-0.21614	0.23429	-0.046816	-0.15316	-0.008669	-0.046816	0.031938	-0.008669	0	0	0	-0.1297	0.029369	0.028783	-0.14171	0.043876	0.14661	-0.14151	-0.082098	0.046424
